<svg width="309" height="67" viewBox="0 0 309 67" fill="none" xmlns="http://www.w3.org/2000/svg">
<path d="M75.0221 23H69.8512L66.9508 11.75C66.8434 11.3496 66.6578 10.5244 66.3941 9.27441C66.1402 8.01465 65.9938 7.16992 65.9547 6.74023C65.8961 7.26758 65.7496 8.11719 65.5152 9.28906C65.2809 10.4512 65.1002 11.2812 64.9732 11.7793L62.0875 23H56.9313L51.4674 1.58398H55.9352L58.6744 13.2734C59.1529 15.4316 59.4996 17.3018 59.7145 18.8838C59.773 18.3271 59.9049 17.4678 60.11 16.3057C60.3248 15.1338 60.525 14.2256 60.7105 13.5811L63.8307 1.58398H68.1227L71.2428 13.5811C71.3795 14.1182 71.5504 14.9385 71.7555 16.042C71.9605 17.1455 72.1168 18.0928 72.2242 18.8838C72.3219 18.1221 72.4781 17.1748 72.693 16.042C72.9078 14.8994 73.1031 13.9766 73.2789 13.2734L76.0035 1.58398H80.4713L75.0221 23ZM93.3654 23L92.5012 20.7734H92.384C91.632 21.7207 90.8557 22.3799 90.0549 22.751C89.2639 23.1123 88.2287 23.293 86.9494 23.293C85.3772 23.293 84.1369 22.8438 83.2287 21.9453C82.3303 21.0469 81.8811 19.7676 81.8811 18.1074C81.8811 16.3691 82.4865 15.0898 83.6975 14.2695C84.9182 13.4395 86.7541 12.9805 89.2053 12.8926L92.0471 12.8047V12.0869C92.0471 10.4268 91.1975 9.59668 89.4982 9.59668C88.1897 9.59668 86.6516 9.99219 84.884 10.7832L83.4045 7.76562C85.2893 6.7793 87.3791 6.28613 89.674 6.28613C91.8713 6.28613 93.5559 6.76465 94.7277 7.72168C95.8996 8.67871 96.4855 10.1338 96.4855 12.0869V23H93.3654ZM92.0471 15.4121L90.3186 15.4707C89.0197 15.5098 88.0529 15.7441 87.4182 16.1738C86.7834 16.6035 86.466 17.2578 86.466 18.1367C86.466 19.3965 87.1887 20.0264 88.634 20.0264C89.6691 20.0264 90.4943 19.7285 91.1096 19.1328C91.7346 18.5371 92.0471 17.7461 92.0471 16.7598V15.4121ZM116.367 23H111.899V13.4346C111.899 12.2529 111.689 11.3691 111.269 10.7832C110.849 10.1875 110.18 9.88965 109.262 9.88965C108.012 9.88965 107.109 10.3096 106.553 11.1494C105.996 11.9795 105.718 13.3613 105.718 15.2949V23H101.25V6.62305H104.663L105.263 8.71777H105.512C106.011 7.92676 106.694 7.33105 107.563 6.93066C108.442 6.52051 109.438 6.31543 110.552 6.31543C112.456 6.31543 113.901 6.83301 114.887 7.86816C115.874 8.89355 116.367 10.3779 116.367 12.3213V23ZM128.016 19.7334C128.797 19.7334 129.735 19.5625 130.829 19.2207V22.5459C129.715 23.0439 128.348 23.293 126.727 23.293C124.94 23.293 123.636 22.8438 122.816 21.9453C122.005 21.0371 121.6 19.6797 121.6 17.873V9.97754H119.461V8.08789L121.922 6.59375L123.211 3.13672H126.068V6.62305H130.653V9.97754H126.068V17.873C126.068 18.5078 126.244 18.9766 126.595 19.2793C126.956 19.582 127.43 19.7334 128.016 19.7334ZM149.146 19.7334C149.927 19.7334 150.865 19.5625 151.959 19.2207V22.5459C150.845 23.0439 149.478 23.293 147.857 23.293C146.07 23.293 144.766 22.8438 143.946 21.9453C143.135 21.0371 142.73 19.6797 142.73 17.873V9.97754H140.591V8.08789L143.052 6.59375L144.341 3.13672H147.198V6.62305H151.783V9.97754H147.198V17.873C147.198 18.5078 147.374 18.9766 147.725 19.2793C148.087 19.582 148.56 19.7334 149.146 19.7334ZM158.993 14.7822C158.993 16.4033 159.257 17.6289 159.784 18.459C160.321 19.2891 161.191 19.7041 162.392 19.7041C163.583 19.7041 164.438 19.2939 164.955 18.4736C165.483 17.6436 165.746 16.4131 165.746 14.7822C165.746 13.1611 165.483 11.9453 164.955 11.1348C164.428 10.3242 163.564 9.91895 162.363 9.91895C161.171 9.91895 160.312 10.3242 159.784 11.1348C159.257 11.9355 158.993 13.1514 158.993 14.7822ZM170.317 14.7822C170.317 17.4482 169.613 19.5332 168.207 21.0371C166.801 22.541 164.843 23.293 162.333 23.293C160.761 23.293 159.374 22.9512 158.173 22.2676C156.972 21.5742 156.049 20.583 155.404 19.2939C154.76 18.0049 154.438 16.501 154.438 14.7822C154.438 12.1064 155.136 10.0264 156.532 8.54199C157.929 7.05762 159.892 6.31543 162.421 6.31543C163.993 6.31543 165.38 6.65723 166.581 7.34082C167.782 8.02441 168.705 9.00586 169.35 10.2852C169.994 11.5645 170.317 13.0635 170.317 14.7822ZM191.212 6.31543C193.146 6.31543 194.66 7.07227 195.753 8.58594C196.847 10.0898 197.394 12.1553 197.394 14.7822C197.394 17.4873 196.828 19.582 195.695 21.0664C194.572 22.5508 193.038 23.293 191.095 23.293C189.171 23.293 187.663 22.5947 186.569 21.1982H186.261L185.514 23H182.101V0.207031H186.569V5.50977C186.569 6.18359 186.51 7.2627 186.393 8.74707H186.569C187.614 7.12598 189.162 6.31543 191.212 6.31543ZM189.777 9.88965C188.673 9.88965 187.868 10.2314 187.36 10.915C186.852 11.5889 186.588 12.707 186.569 14.2695V14.7529C186.569 16.5107 186.828 17.7705 187.345 18.5322C187.872 19.2939 188.703 19.6748 189.835 19.6748C190.753 19.6748 191.481 19.2549 192.018 18.415C192.565 17.5654 192.838 16.335 192.838 14.7236C192.838 13.1123 192.565 11.9062 192.018 11.1055C191.471 10.2949 190.724 9.88965 189.777 9.88965ZM212.837 23L212.236 20.9053H212.002C211.523 21.667 210.845 22.2578 209.966 22.6777C209.087 23.0879 208.086 23.293 206.963 23.293C205.039 23.293 203.589 22.7803 202.612 21.7549C201.636 20.7197 201.147 19.2354 201.147 17.3018V6.62305H205.615V16.1885C205.615 17.3701 205.825 18.2588 206.245 18.8545C206.665 19.4404 207.334 19.7334 208.252 19.7334C209.502 19.7334 210.405 19.3184 210.962 18.4883C211.519 17.6484 211.797 16.2617 211.797 14.3281V6.62305H216.265V23H212.837ZM220.912 2.38965C220.912 0.93457 221.722 0.207031 223.343 0.207031C224.964 0.207031 225.775 0.93457 225.775 2.38965C225.775 3.08301 225.57 3.625 225.16 4.01562C224.759 4.39648 224.154 4.58691 223.343 4.58691C221.722 4.58691 220.912 3.85449 220.912 2.38965ZM225.57 23H221.102V6.62305H225.57V23ZM234.89 23H230.422V0.207031H234.89V23ZM244.928 23.293C243.004 23.293 241.49 22.5459 240.387 21.0518C239.293 19.5576 238.746 17.4873 238.746 14.8408C238.746 12.1553 239.303 10.0654 240.416 8.57129C241.539 7.06738 243.082 6.31543 245.045 6.31543C247.105 6.31543 248.678 7.11621 249.762 8.71777H249.908C249.683 7.49707 249.571 6.4082 249.571 5.45117V0.207031H254.054V23H250.626L249.762 20.876H249.571C248.555 22.4873 247.008 23.293 244.928 23.293ZM246.495 19.7334C247.638 19.7334 248.472 19.4014 249 18.7373C249.537 18.0732 249.83 16.9453 249.879 15.3535V14.8701C249.879 13.1123 249.605 11.8525 249.058 11.0908C248.521 10.3291 247.642 9.94824 246.422 9.94824C245.426 9.94824 244.649 10.373 244.093 11.2227C243.546 12.0625 243.272 13.2881 243.272 14.8994C243.272 16.5107 243.551 17.7217 244.107 18.5322C244.664 19.333 245.46 19.7334 246.495 19.7334ZM12.6713 54.1367C12.6713 55.8164 12.0854 57.0957 10.9135 57.9746C9.75137 58.8535 8.00821 59.293 5.68399 59.293C4.49258 59.293 3.47696 59.21 2.63712 59.0439C1.79727 58.8877 1.01114 58.6533 0.278717 58.3408V54.6494C1.1088 55.04 2.04141 55.3672 3.07657 55.6309C4.12149 55.8945 5.03946 56.0264 5.83047 56.0264C7.45157 56.0264 8.26212 55.5576 8.26212 54.6201C8.26212 54.2686 8.15469 53.9854 7.93985 53.7705C7.72501 53.5459 7.35391 53.2969 6.82657 53.0234C6.29922 52.7402 5.5961 52.4131 4.71719 52.042C3.45743 51.5146 2.52969 51.0264 1.93399 50.5771C1.34805 50.1279 0.918365 49.6152 0.644928 49.0391C0.381256 48.4531 0.24942 47.7354 0.24942 46.8857C0.24942 45.4307 0.810944 44.3076 1.93399 43.5166C3.0668 42.7158 4.66837 42.3154 6.73868 42.3154C8.71133 42.3154 10.6303 42.7451 12.4955 43.6045L11.1479 46.8271C10.3275 46.4756 9.56094 46.1875 8.84805 45.9629C8.13516 45.7383 7.40762 45.626 6.66544 45.626C5.34708 45.626 4.6879 45.9824 4.6879 46.6953C4.6879 47.0957 4.89786 47.4424 5.31778 47.7354C5.74747 48.0283 6.68008 48.4629 8.11563 49.0391C9.39493 49.5566 10.3324 50.04 10.9281 50.4893C11.5238 50.9385 11.9633 51.4561 12.2465 52.042C12.5297 52.6279 12.6713 53.3262 12.6713 54.1367ZM19.8672 50.7822C19.8672 52.4033 20.1309 53.6289 20.6582 54.459C21.1953 55.2891 22.0645 55.7041 23.2656 55.7041C24.457 55.7041 25.3115 55.2939 25.8291 54.4736C26.3565 53.6436 26.6201 52.4131 26.6201 50.7822C26.6201 49.1611 26.3565 47.9453 25.8291 47.1348C25.3018 46.3242 24.4375 45.9189 23.2363 45.9189C22.0449 45.9189 21.1856 46.3242 20.6582 47.1348C20.1309 47.9355 19.8672 49.1514 19.8672 50.7822ZM31.1904 50.7822C31.1904 53.4482 30.4873 55.5332 29.0811 57.0371C27.6748 58.541 25.7168 59.293 23.207 59.293C21.6348 59.293 20.2481 58.9512 19.0469 58.2676C17.8457 57.5742 16.9229 56.583 16.2783 55.2939C15.6338 54.0049 15.3115 52.501 15.3115 50.7822C15.3115 48.1064 16.0098 46.0264 17.4063 44.542C18.8027 43.0576 20.7656 42.3154 23.2949 42.3154C24.8672 42.3154 26.2539 42.6572 27.4551 43.3408C28.6563 44.0244 29.5791 45.0059 30.2236 46.2852C30.8682 47.5645 31.1904 49.0635 31.1904 50.7822ZM49.6949 59H45.2272V49.4346C45.2272 48.2529 45.027 47.3691 44.6266 46.7832C44.2359 46.1875 43.6158 45.8896 42.7662 45.8896C41.6236 45.8896 40.7936 46.3096 40.276 47.1494C39.7584 47.9893 39.4996 49.3711 39.4996 51.2949V59H35.0318V42.623H38.4449L39.0455 44.7178H39.2945C39.734 43.9658 40.3688 43.3799 41.1988 42.96C42.0289 42.5303 42.9811 42.3154 44.0553 42.3154C46.5065 42.3154 48.1666 43.1162 49.0357 44.7178H49.4313C49.8707 43.9561 50.5152 43.3652 51.3648 42.9453C52.2242 42.5254 53.191 42.3154 54.2652 42.3154C56.1207 42.3154 57.5221 42.7939 58.4693 43.751C59.4264 44.6982 59.9049 46.2217 59.9049 48.3213V59H55.4225V49.4346C55.4225 48.2529 55.2223 47.3691 54.8219 46.7832C54.4313 46.1875 53.8111 45.8896 52.9615 45.8896C51.8678 45.8896 51.0475 46.2803 50.5006 47.0615C49.9635 47.8428 49.6949 49.083 49.6949 50.7822V59ZM71.4367 45.4941C70.4895 45.4941 69.7473 45.7969 69.2102 46.4023C68.673 46.998 68.3654 47.8477 68.2873 48.9512H74.5568C74.5373 47.8477 74.2492 46.998 73.6926 46.4023C73.1359 45.7969 72.384 45.4941 71.4367 45.4941ZM72.0666 59.293C69.4299 59.293 67.3693 58.5654 65.885 57.1104C64.4006 55.6553 63.6584 53.5947 63.6584 50.9287C63.6584 48.1846 64.342 46.0654 65.7092 44.5713C67.0861 43.0674 68.9855 42.3154 71.4074 42.3154C73.7219 42.3154 75.5236 42.9746 76.8127 44.293C78.1018 45.6113 78.7463 47.4326 78.7463 49.7568V51.9248H68.1848C68.2336 53.1943 68.6096 54.1855 69.3127 54.8984C70.0158 55.6113 71.0022 55.9678 72.2717 55.9678C73.258 55.9678 74.1906 55.8652 75.0695 55.6602C75.9484 55.4551 76.8664 55.1279 77.8234 54.6787V58.1357C77.0422 58.5264 76.2072 58.8145 75.3186 59C74.4299 59.1953 73.3459 59.293 72.0666 59.293ZM89.4285 55.7334C90.2098 55.7334 91.1473 55.5625 92.241 55.2207V58.5459C91.1277 59.0439 89.7606 59.293 88.1395 59.293C86.3523 59.293 85.0486 58.8438 84.2283 57.9453C83.4178 57.0371 83.0125 55.6797 83.0125 53.873V45.9775H80.8738V44.0879L83.3348 42.5938L84.6238 39.1367H87.4803V42.623H92.0652V45.9775H87.4803V53.873C87.4803 54.5078 87.6561 54.9766 88.0076 55.2793C88.3689 55.582 88.8426 55.7334 89.4285 55.7334ZM110.833 59H106.366V49.4346C106.366 47.0713 105.487 45.8896 103.729 45.8896C102.479 45.8896 101.576 46.3145 101.019 47.1641C100.462 48.0137 100.184 49.3906 100.184 51.2949V59H95.7162V36.207H100.184V40.8506C100.184 41.2119 100.15 42.0615 100.081 43.3994L99.9789 44.7178H100.213C101.209 43.1162 102.791 42.3154 104.959 42.3154C106.883 42.3154 108.343 42.833 109.339 43.8682C110.335 44.9033 110.833 46.3877 110.833 48.3213V59ZM115.393 38.3896C115.393 36.9346 116.203 36.207 117.824 36.207C119.445 36.207 120.256 36.9346 120.256 38.3896C120.256 39.083 120.051 39.625 119.641 40.0156C119.24 40.3965 118.635 40.5869 117.824 40.5869C116.203 40.5869 115.393 39.8545 115.393 38.3896ZM120.051 59H115.583V42.623H120.051V59ZM140.02 59H135.552V49.4346C135.552 48.2529 135.342 47.3691 134.922 46.7832C134.503 46.1875 133.834 45.8896 132.916 45.8896C131.666 45.8896 130.762 46.3096 130.206 47.1494C129.649 47.9795 129.371 49.3613 129.371 51.2949V59H124.903V42.623H128.316L128.917 44.7178H129.166C129.664 43.9268 130.347 43.3311 131.216 42.9307C132.095 42.5205 133.091 42.3154 134.205 42.3154C136.109 42.3154 137.554 42.833 138.541 43.8682C139.527 44.8936 140.02 46.3779 140.02 48.3213V59ZM159.023 42.623V44.8936L156.459 45.5527C156.928 46.2852 157.162 47.1055 157.162 48.0137C157.162 49.7715 156.547 51.1436 155.317 52.1299C154.096 53.1064 152.397 53.5947 150.219 53.5947L149.413 53.5508L148.754 53.4775C148.295 53.8291 148.066 54.2197 148.066 54.6494C148.066 55.2939 148.886 55.6162 150.527 55.6162H153.31C155.107 55.6162 156.474 56.002 157.411 56.7734C158.359 57.5449 158.832 58.6777 158.832 60.1719C158.832 62.0859 158.031 63.5703 156.43 64.625C154.838 65.6797 152.548 66.207 149.56 66.207C147.275 66.207 145.527 65.8066 144.316 65.0059C143.114 64.2148 142.514 63.1016 142.514 61.666C142.514 60.6797 142.821 59.8545 143.437 59.1904C144.052 58.5264 144.955 58.0527 146.147 57.7695C145.688 57.5742 145.287 57.2568 144.946 56.8174C144.604 56.3682 144.433 55.8945 144.433 55.3965C144.433 54.7715 144.613 54.2539 144.975 53.8438C145.336 53.4238 145.859 53.0137 146.542 52.6133C145.683 52.2422 144.999 51.6465 144.491 50.8262C143.993 50.0059 143.744 49.0391 143.744 47.9258C143.744 46.1387 144.325 44.7568 145.488 43.7803C146.65 42.8037 148.31 42.3154 150.468 42.3154C150.927 42.3154 151.469 42.3594 152.094 42.4473C152.729 42.5254 153.134 42.584 153.31 42.623H159.023ZM146.381 61.3145C146.381 61.9297 146.674 62.4131 147.26 62.7646C147.856 63.1162 148.686 63.292 149.75 63.292C151.352 63.292 152.607 63.0723 153.515 62.6328C154.423 62.1934 154.877 61.5928 154.877 60.8311C154.877 60.2158 154.609 59.791 154.071 59.5566C153.534 59.3223 152.704 59.2051 151.581 59.2051H149.267C148.446 59.2051 147.758 59.3955 147.201 59.7764C146.654 60.167 146.381 60.6797 146.381 61.3145ZM148.007 47.9844C148.007 48.873 148.207 49.5762 148.608 50.0938C149.018 50.6113 149.638 50.8701 150.468 50.8701C151.308 50.8701 151.923 50.6113 152.314 50.0938C152.704 49.5762 152.9 48.873 152.9 47.9844C152.9 46.0117 152.089 45.0254 150.468 45.0254C148.827 45.0254 148.007 46.0117 148.007 47.9844ZM180.226 59L179.362 56.7734H179.245C178.493 57.7207 177.716 58.3799 176.915 58.751C176.124 59.1123 175.089 59.293 173.81 59.293C172.238 59.293 170.997 58.8438 170.089 57.9453C169.191 57.0469 168.742 55.7676 168.742 54.1074C168.742 52.3691 169.347 51.0898 170.558 50.2695C171.779 49.4395 173.615 48.9805 176.066 48.8926L178.908 48.8047V48.0869C178.908 46.4268 178.058 45.5967 176.359 45.5967C175.05 45.5967 173.512 45.9922 171.745 46.7832L170.265 43.7656C172.15 42.7793 174.24 42.2861 176.535 42.2861C178.732 42.2861 180.416 42.7646 181.588 43.7217C182.76 44.6787 183.346 46.1338 183.346 48.0869V59H180.226ZM178.908 51.4121L177.179 51.4707C175.88 51.5098 174.913 51.7441 174.279 52.1738C173.644 52.6035 173.327 53.2578 173.327 54.1367C173.327 55.3965 174.049 56.0264 175.495 56.0264C176.53 56.0264 177.355 55.7285 177.97 55.1328C178.595 54.5371 178.908 53.7461 178.908 52.7598V51.4121ZM202.773 59H198.306V49.4346C198.306 48.2529 198.105 47.3691 197.705 46.7832C197.314 46.1875 196.694 45.8896 195.845 45.8896C194.702 45.8896 193.872 46.3096 193.354 47.1494C192.837 47.9893 192.578 49.3711 192.578 51.2949V59H188.11V42.623H191.523L192.124 44.7178H192.373C192.812 43.9658 193.447 43.3799 194.277 42.96C195.107 42.5303 196.06 42.3154 197.134 42.3154C199.585 42.3154 201.245 43.1162 202.114 44.7178H202.51C202.949 43.9561 203.594 43.3652 204.443 42.9453C205.303 42.5254 206.27 42.3154 207.344 42.3154C209.199 42.3154 210.601 42.7939 211.548 43.751C212.505 44.6982 212.983 46.2217 212.983 48.3213V59H208.501V49.4346C208.501 48.2529 208.301 47.3691 207.9 46.7832C207.51 46.1875 206.89 45.8896 206.04 45.8896C204.946 45.8896 204.126 46.2803 203.579 47.0615C203.042 47.8428 202.773 49.083 202.773 50.7822V59ZM228.133 59L227.269 56.7734H227.152C226.4 57.7207 225.624 58.3799 224.823 58.751C224.032 59.1123 222.997 59.293 221.717 59.293C220.145 59.293 218.905 58.8438 217.997 57.9453C217.098 57.0469 216.649 55.7676 216.649 54.1074C216.649 52.3691 217.255 51.0898 218.465 50.2695C219.686 49.4395 221.522 48.9805 223.973 48.8926L226.815 48.8047V48.0869C226.815 46.4268 225.965 45.5967 224.266 45.5967C222.958 45.5967 221.42 45.9922 219.652 46.7832L218.172 43.7656C220.057 42.7793 222.147 42.2861 224.442 42.2861C226.639 42.2861 228.324 42.7646 229.496 43.7217C230.668 44.6787 231.254 46.1338 231.254 48.0869V59H228.133ZM226.815 51.4121L225.087 51.4707C223.788 51.5098 222.821 51.7441 222.186 52.1738C221.551 52.6035 221.234 53.2578 221.234 54.1367C221.234 55.3965 221.957 56.0264 223.402 56.0264C224.437 56.0264 225.262 55.7285 225.878 55.1328C226.503 54.5371 226.815 53.7461 226.815 52.7598V51.4121ZM247.414 59H234.48V56.3633L242.068 46.0361H234.934V42.623H247.151V45.5234L239.768 55.5869H247.414V59ZM250.626 38.3896C250.626 36.9346 251.436 36.207 253.057 36.207C254.679 36.207 255.489 36.9346 255.489 38.3896C255.489 39.083 255.284 39.625 254.874 40.0156C254.473 40.3965 253.868 40.5869 253.057 40.5869C251.436 40.5869 250.626 39.8545 250.626 38.3896ZM255.284 59H250.816V42.623H255.284V59ZM275.253 59H270.786V49.4346C270.786 48.2529 270.576 47.3691 270.156 46.7832C269.736 46.1875 269.067 45.8896 268.149 45.8896C266.899 45.8896 265.996 46.3096 265.439 47.1494C264.882 47.9795 264.604 49.3613 264.604 51.2949V59H260.136V42.623H263.549L264.15 44.7178H264.399C264.897 43.9268 265.58 43.3311 266.45 42.9307C267.329 42.5205 268.325 42.3154 269.438 42.3154C271.342 42.3154 272.788 42.833 273.774 43.8682C274.76 44.8936 275.253 46.3779 275.253 48.3213V59ZM294.256 42.623V44.8936L291.692 45.5527C292.161 46.2852 292.396 47.1055 292.396 48.0137C292.396 49.7715 291.78 51.1436 290.55 52.1299C289.329 53.1064 287.63 53.5947 285.452 53.5947L284.646 53.5508L283.987 53.4775C283.528 53.8291 283.299 54.2197 283.299 54.6494C283.299 55.2939 284.119 55.6162 285.76 55.6162H288.543C290.34 55.6162 291.707 56.002 292.645 56.7734C293.592 57.5449 294.065 58.6777 294.065 60.1719C294.065 62.0859 293.265 63.5703 291.663 64.625C290.071 65.6797 287.781 66.207 284.793 66.207C282.508 66.207 280.76 65.8066 279.549 65.0059C278.348 64.2148 277.747 63.1016 277.747 61.666C277.747 60.6797 278.055 59.8545 278.67 59.1904C279.285 58.5264 280.188 58.0527 281.38 57.7695C280.921 57.5742 280.521 57.2568 280.179 56.8174C279.837 56.3682 279.666 55.8945 279.666 55.3965C279.666 54.7715 279.847 54.2539 280.208 53.8438C280.569 53.4238 281.092 53.0137 281.775 52.6133C280.916 52.2422 280.232 51.6465 279.725 50.8262C279.227 50.0059 278.978 49.0391 278.978 47.9258C278.978 46.1387 279.559 44.7568 280.721 43.7803C281.883 42.8037 283.543 42.3154 285.701 42.3154C286.16 42.3154 286.702 42.3594 287.327 42.4473C287.962 42.5254 288.367 42.584 288.543 42.623H294.256ZM281.614 61.3145C281.614 61.9297 281.907 62.4131 282.493 62.7646C283.089 63.1162 283.919 63.292 284.983 63.292C286.585 63.292 287.84 63.0723 288.748 62.6328C289.656 62.1934 290.11 61.5928 290.11 60.8311C290.11 60.2158 289.842 59.791 289.305 59.5566C288.768 59.3223 287.938 59.2051 286.814 59.2051H284.5C283.68 59.2051 282.991 59.3955 282.435 59.7764C281.888 60.167 281.614 60.6797 281.614 61.3145ZM283.24 47.9844C283.24 48.873 283.44 49.5762 283.841 50.0938C284.251 50.6113 284.871 50.8701 285.701 50.8701C286.541 50.8701 287.156 50.6113 287.547 50.0938C287.938 49.5762 288.133 48.873 288.133 47.9844C288.133 46.0117 287.322 45.0254 285.701 45.0254C284.061 45.0254 283.24 46.0117 283.24 47.9844ZM298.815 51.8955V50.8115C298.815 49.874 299.015 49.0586 299.416 48.3652C299.816 47.6719 300.548 46.9346 301.613 46.1533C302.638 45.4209 303.312 44.8252 303.634 44.3662C303.966 43.9072 304.132 43.3945 304.132 42.8281C304.132 42.1934 303.898 41.71 303.429 41.3779C302.961 41.0459 302.306 40.8799 301.466 40.8799C300.002 40.8799 298.332 41.3584 296.457 42.3154L294.86 39.1074C297.038 37.8867 299.347 37.2764 301.789 37.2764C303.8 37.2764 305.397 37.7598 306.579 38.7266C307.77 39.6934 308.366 40.9824 308.366 42.5938C308.366 43.668 308.122 44.5957 307.633 45.377C307.145 46.1582 306.217 47.0371 304.85 48.0137C303.913 48.707 303.317 49.2344 303.063 49.5957C302.819 49.957 302.697 50.4307 302.697 51.0166V51.8955H298.815ZM298.346 56.9053C298.346 56.085 298.566 55.4648 299.005 55.0449C299.445 54.625 300.085 54.415 300.924 54.415C301.735 54.415 302.36 54.6299 302.799 55.0596C303.249 55.4893 303.473 56.1045 303.473 56.9053C303.473 57.6768 303.249 58.2871 302.799 58.7363C302.35 59.1758 301.725 59.3955 300.924 59.3955C300.104 59.3955 299.469 59.1807 299.02 58.751C298.571 58.3115 298.346 57.6963 298.346 56.9053Z" fill="#48555B"/>
</svg>
