<svg width="74" height="48" viewBox="0 0 74 48" fill="none" xmlns="http://www.w3.org/2000/svg">
<path d="M20.3555 18H14.8828L13.2422 10.5352C13.1641 10.2227 13.0391 9.60156 12.8672 8.67188C12.7031 7.74219 12.582 6.96484 12.5039 6.33984C12.4414 6.84766 12.3398 7.48047 12.1992 8.23828C12.0586 8.98828 11.918 9.67969 11.7773 10.3125C11.6445 10.9453 11.0781 13.5078 10.0781 18H4.60547L0.363281 0.867188H4.82812L6.69141 9.45703C7.11328 11.3555 7.40234 12.8672 7.55859 13.9922C7.66016 13.1953 7.83984 12.1133 8.09766 10.7461C8.36328 9.37891 8.60938 8.24609 8.83594 7.34766L10.3477 0.867188H14.6367L16.1016 7.34766C16.3516 8.38672 16.6055 9.58594 16.8633 10.9453C17.1211 12.3047 17.293 13.3203 17.3789 13.9922C17.4805 13.125 17.7578 11.6211 18.2109 9.48047L20.1094 0.867188H24.5742L20.3555 18ZM37.1484 18H26.9766V0.867188H37.1484V4.58203H31.6055V7.27734H36.7383V10.9922H31.6055V14.2266H37.1484V18ZM1.85156 29.8672H7.82812C10.1562 29.8672 11.8828 30.2148 13.0078 30.9102C14.1406 31.5977 14.707 32.6719 14.707 34.1328C14.707 35.0938 14.4609 35.9141 13.9688 36.5938C13.4766 37.2734 12.8281 37.7109 12.0234 37.9062V38.0234C13.0859 38.3047 13.8555 38.7734 14.332 39.4297C14.8086 40.0859 15.0469 40.9375 15.0469 41.9844C15.0469 43.5391 14.4609 44.7656 13.2891 45.6641C12.125 46.5547 10.5352 47 8.51953 47H1.85156V29.8672ZM6.48047 36.4414H7.875C8.53906 36.4414 9.05078 36.3047 9.41016 36.0312C9.77734 35.7578 9.96094 35.3516 9.96094 34.8125C9.96094 33.8516 9.23438 33.3711 7.78125 33.3711H6.48047V36.4414ZM6.48047 39.8281V43.4258H8.10938C9.55469 43.4258 10.2773 42.8164 10.2773 41.5977C10.2773 41.0273 10.082 40.5898 9.69141 40.2852C9.30859 39.9805 8.75 39.8281 8.01562 39.8281H6.48047ZM32.7773 29.8672V40.1797C32.7773 42.4219 32.1406 44.1602 30.8672 45.3945C29.6016 46.6211 27.7734 47.2344 25.3828 47.2344C23.0469 47.2344 21.25 46.6367 19.9922 45.4414C18.7422 44.2461 18.1172 42.5273 18.1172 40.2852V29.8672H22.7695V39.9219C22.7695 41.1328 22.9961 42.0117 23.4492 42.5586C23.9023 43.1055 24.5703 43.3789 25.4531 43.3789C26.3984 43.3789 27.082 43.1094 27.5039 42.5703C27.9336 42.0234 28.1484 41.1328 28.1484 39.8984V29.8672H32.7773ZM36.5625 47V29.8672H41.2148V47H36.5625ZM45.1172 47V29.8672H49.7461V43.2617H56.3438V47H45.1172ZM73.8164 38.0703C73.8164 40.9297 73.0273 43.1328 71.4492 44.6797C69.8789 46.2266 67.668 47 64.8164 47H59.2734V29.8672H65.2031C67.9531 29.8672 70.0742 30.5703 71.5664 31.9766C73.0664 33.3828 73.8164 35.4141 73.8164 38.0703ZM69.0117 38.2344C69.0117 36.6641 68.6992 35.5 68.0742 34.7422C67.457 33.9844 66.5156 33.6055 65.25 33.6055H63.9023V43.2031H64.9336C66.3398 43.2031 67.3711 42.7969 68.0273 41.9844C68.6836 41.1641 69.0117 39.9141 69.0117 38.2344Z" fill="white"/>
</svg>
