<svg width="109" height="48" viewBox="0 0 109 48" fill="none" xmlns="http://www.w3.org/2000/svg">
<path d="M20.3555 18H14.8828L13.2422 10.5352C13.1641 10.2227 13.0391 9.60156 12.8672 8.67188C12.7031 7.74219 12.582 6.96484 12.5039 6.33984C12.4414 6.84766 12.3398 7.48047 12.1992 8.23828C12.0586 8.98828 11.918 9.67969 11.7773 10.3125C11.6445 10.9453 11.0781 13.5078 10.0781 18H4.60547L0.363281 0.867188H4.82812L6.69141 9.45703C7.11328 11.3555 7.40234 12.8672 7.55859 13.9922C7.66016 13.1953 7.83984 12.1133 8.09766 10.7461C8.36328 9.37891 8.60938 8.24609 8.83594 7.34766L10.3477 0.867188H14.6367L16.1016 7.34766C16.3516 8.38672 16.6055 9.58594 16.8633 10.9453C17.1211 12.3047 17.293 13.3203 17.3789 13.9922C17.4805 13.125 17.7578 11.6211 18.2109 9.48047L20.1094 0.867188H24.5742L20.3555 18ZM37.1484 18H26.9766V0.867188H37.1484V4.58203H31.6055V7.27734H36.7383V10.9922H31.6055V14.2266H37.1484V18ZM9.31641 47L5.8125 34.6602H5.70703C5.87109 36.7617 5.95312 38.3945 5.95312 39.5586V47H1.85156V29.8672H8.01562L11.5898 42.0312H11.6836L15.1875 29.8672H21.3633V47H17.1094V39.4883C17.1094 39.0977 17.1133 38.6641 17.1211 38.1875C17.1367 37.7109 17.1914 36.543 17.2852 34.6836H17.1797L13.7227 47H9.31641ZM35.7539 47L34.9102 43.7891H29.3438L28.4766 47H23.3906L28.9805 29.7969H35.1562L40.8164 47H35.7539ZM33.9492 39.9922L33.2109 37.1797C33.0391 36.5547 32.8281 35.7461 32.5781 34.7539C32.3359 33.7617 32.1758 33.0508 32.0977 32.6211C32.0273 33.0195 31.8867 33.6758 31.6758 34.5898C31.4727 35.5039 31.0156 37.3047 30.3047 39.9922H33.9492ZM59.1797 47H53.1094L46.8516 34.9297H46.7461C46.8945 36.8281 46.9688 38.2773 46.9688 39.2773V47H42.8672V29.8672H48.9141L55.1484 41.7734H55.2188C55.1094 40.0469 55.0547 38.6602 55.0547 37.6133V29.8672H59.1797V47ZM73.582 47L72.7383 43.7891H67.1719L66.3047 47H61.2188L66.8086 29.7969H72.9844L78.6445 47H73.582ZM71.7773 39.9922L71.0391 37.1797C70.8672 36.5547 70.6562 35.7461 70.4062 34.7539C70.1641 33.7617 70.0039 33.0508 69.9258 32.6211C69.8555 33.0195 69.7148 33.6758 69.5039 34.5898C69.3008 35.5039 68.8438 37.3047 68.1328 39.9922H71.7773ZM87.5742 36.9688H94.9688V46.2031C92.9609 46.8906 90.7539 47.2344 88.3477 47.2344C85.707 47.2344 83.6641 46.4688 82.2188 44.9375C80.7812 43.4062 80.0625 41.2227 80.0625 38.3867C80.0625 35.6211 80.8516 33.4688 82.4297 31.9297C84.0078 30.3906 86.2188 29.6211 89.0625 29.6211C90.1406 29.6211 91.1562 29.7227 92.1094 29.9258C93.0703 30.1289 93.9062 30.3867 94.6172 30.6992L93.1523 34.332C91.918 33.7227 90.5625 33.418 89.0859 33.418C87.7344 33.418 86.6875 33.8594 85.9453 34.7422C85.2109 35.6172 84.8438 36.8711 84.8438 38.5039C84.8438 40.1055 85.1758 41.3281 85.8398 42.1719C86.5117 43.0078 87.4766 43.4258 88.7344 43.4258C89.4219 43.4258 90.0547 43.3594 90.6328 43.2266V40.543H87.5742V36.9688ZM108.82 47H98.6484V29.8672H108.82V33.582H103.277V36.2773H108.41V39.9922H103.277V43.2266H108.82V47Z" fill="white"/>
</svg>
