<svg width="66" height="47" viewBox="0 0 66 47" fill="none" xmlns="http://www.w3.org/2000/svg">
<path d="M20.3555 18H14.8828L13.2422 10.5352C13.1641 10.2227 13.0391 9.60156 12.8672 8.67188C12.7031 7.74219 12.582 6.96484 12.5039 6.33984C12.4414 6.84766 12.3398 7.48047 12.1992 8.23828C12.0586 8.98828 11.918 9.67969 11.7773 10.3125C11.6445 10.9453 11.0781 13.5078 10.0781 18H4.60547L0.363281 0.867188H4.82812L6.69141 9.45703C7.11328 11.3555 7.40234 12.8672 7.55859 13.9922C7.66016 13.1953 7.83984 12.1133 8.09766 10.7461C8.36328 9.37891 8.60938 8.24609 8.83594 7.34766L10.3477 0.867188H14.6367L16.1016 7.34766C16.3516 8.38672 16.6055 9.58594 16.8633 10.9453C17.1211 12.3047 17.293 13.3203 17.3789 13.9922C17.4805 13.125 17.7578 11.6211 18.2109 9.48047L20.1094 0.867188H24.5742L20.3555 18ZM37.1484 18H26.9766V0.867188H37.1484V4.58203H31.6055V7.27734H36.7383V10.9922H31.6055V14.2266H37.1484V18ZM14.2852 35.3164C14.2852 37.2305 13.7188 38.7109 12.5859 39.7578C11.4609 40.7969 9.85938 41.3164 7.78125 41.3164H6.48047V47H1.85156V29.8672H7.78125C9.94531 29.8672 11.5703 30.3398 12.6562 31.2852C13.7422 32.2305 14.2852 33.5742 14.2852 35.3164ZM6.48047 37.543H7.32422C8.01953 37.543 8.57031 37.3477 8.97656 36.957C9.39062 36.5664 9.59766 36.0273 9.59766 35.3398C9.59766 34.1836 8.95703 33.6055 7.67578 33.6055H6.48047V37.543ZM17.2031 47V29.8672H21.832V43.2617H28.4297V47H17.2031ZM41.8711 47L41.0273 43.7891H35.4609L34.5938 47H29.5078L35.0977 29.7969H41.2734L46.9336 47H41.8711ZM40.0664 39.9922L39.3281 37.1797C39.1562 36.5547 38.9453 35.7461 38.6953 34.7539C38.4531 33.7617 38.293 33.0508 38.2148 32.6211C38.1445 33.0195 38.0039 33.6758 37.793 34.5898C37.5898 35.5039 37.1328 37.3047 36.4219 39.9922H40.0664ZM65.2969 47H59.2266L52.9688 34.9297H52.8633C53.0117 36.8281 53.0859 38.2773 53.0859 39.2773V47H48.9844V29.8672H55.0312L61.2656 41.7734H61.3359C61.2266 40.0469 61.1719 38.6602 61.1719 37.6133V29.8672H65.2969V47Z" fill="white"/>
</svg>
